# xmcd
#
# Track frame offsets: 
#        150
#        18457
#        40207
#        53479
#        69635
#        91552
#        110210
#        134521
#        148088
#        167134
#        178300
#        190873
#
# Disc length: 2765 seconds
#
# Revision: 0
# Processed by: cddbd v1.5.2PL0 Copyright (c) Steve Scherf et al.
# Submitted via: ExactAudioCopy v1.3
#
DISCID=ac0acb0c
DTITLE=Guy Davis and Fabrizio Poggi - Sonny and Brownie's Last Train
DYEAR=2017
DGENRE=Blues
TTITLE0=Sonny and Brownie's Last Train
TTITLE1=Louise, Louise
TTITLE2=Hooray, Hooray These Women Is Killing Me
TTITLE3=Shortnin' Bread
TTITLE4=Baby Please Don't Go Back To New Orleans
TTITLE5=Take This Hammer
TTITLE6=Goin' Down Slow
TTITLE7=Freight Train
TTITLE8=Evil Hearted Me
TTITLE9=Step It Up And Go
TTITLE10=Walk On
TTITLE11=Midnight Special
EXTD=
EXTT0=
EXTT1=
EXTT2=
EXTT3=
EXTT4=
EXTT5=
EXTT6=
EXTT7=
EXTT8=
EXTT9=
EXTT10=
EXTT11=
PLAYORDER=
